<svg width="172" height="172" viewBox="0 0 172 172" fill="none" xmlns="http://www.w3.org/2000/svg"><rect width="172" height="172" rx="32" fill="#0A1628"/>
<path d="M94.054 43.3054C95.2856 42.758 96.1066 42.5527 96.175 42.5527L77.0171 45.8369C67.7119 47.0001 59.3645 48.1633 52.1119 49.258C38.6329 51.2422 33.6382 52.2685 33.4329 52.3369L33.0224 52.4054L24.7435 61.3001C23.7856 61.0948 22.2803 60.8896 21.3224 61.3001C20.5014 61.6422 20.0224 62.6001 19.7487 63.6264C13.3171 66.4317 5.65399 69.8527 4.90135 70.6054C3.7382 71.7685 3.25925 76.9685 3.32767 77.5159C3.39609 77.9948 3.66978 78.4054 6.06451 81.2106C6.54346 81.758 7.15925 82.5106 7.29609 82.7159C7.36451 82.7843 7.43293 82.9896 7.50135 83.1948C8.45925 85.5896 8.9382 86.4106 9.62241 86.6843C9.96451 86.8212 10.5119 86.8896 15.6435 86.8896C16.054 87.3001 18.2435 89.6264 19.7487 90.7896C22.4171 92.7738 25.7014 93.5264 25.8382 93.5264L27.6856 93.937L26.5224 92.4317C26.5224 92.3633 23.7171 88.737 23.4435 84.9738C23.5803 84.9054 23.7856 84.837 23.9908 84.7685C24.1961 84.7001 24.4698 84.6317 24.675 84.4948C25.3592 85.1106 27.3435 86.8212 27.8224 87.3685C28.3698 88.0527 29.8066 89.2843 29.8066 89.2843C29.8066 89.2843 29.875 88.3264 29.9435 87.1633C31.3803 89.2159 34.8698 94.3475 36.5803 97.837C35.4171 96.8106 33.9803 96.058 33.9803 96.058C33.9803 96.058 34.6645 98.7948 34.7329 99.4791C34.8014 99.8212 34.9382 101.19 35.075 102.284C33.2277 101.395 29.9435 99.7527 27.754 98.3843L26.3856 97.5633L26.7277 99.137C26.7277 99.2738 27.4119 102.216 28.0277 103.653C28.3014 104.269 28.7119 104.884 29.1224 105.432L28.5066 105.569C28.2329 105.637 28.0277 105.705 27.754 105.774C27.6171 105.842 27.4803 105.842 27.3435 105.911C27.275 105.911 27.2066 105.979 27.0698 106.047C27.0014 106.047 27.0014 106.116 26.9329 106.116C26.8645 106.116 26.8645 106.116 26.7961 106.184L26.7277 106.253C26.7277 106.253 26.6593 106.253 26.5908 106.321C26.5224 106.39 26.454 106.458 26.454 106.526C26.454 106.595 26.3856 106.595 26.3856 106.595L26.3171 106.663C26.2487 106.732 26.2487 106.8 26.2487 106.869C26.1803 106.937 26.1803 107.005 26.1803 107.074C26.1119 107.279 26.1119 107.347 26.1119 107.416C26.1119 107.484 26.1119 107.553 26.1119 107.69C26.1119 107.826 26.1119 107.963 26.1119 108.1C26.1119 108.374 26.1119 108.647 26.1119 108.921C26.1119 109.469 26.1803 110.016 26.2487 110.632C26.2487 110.769 26.3171 110.974 26.3856 111.247C26.3856 111.316 26.454 111.384 26.5224 111.521C26.5908 111.59 26.5908 111.658 26.7277 111.795C26.7277 111.795 26.7961 111.863 26.8645 111.932C26.9329 112 27.0014 112 27.0014 112L27.0698 112.069L27.2066 112.137L27.275 112.205L27.4119 112.274C27.6856 112.411 27.9592 112.479 28.1645 112.616C28.5066 112.753 28.7803 112.89 29.1224 112.958L30.4224 115.9L30.5592 116.242L30.9014 116.447C31.3803 116.721 31.7908 116.926 32.2014 117.132C32.6119 117.337 33.0908 117.542 33.5014 117.747C34.3908 118.158 35.2803 118.5 36.2382 118.774C37.1277 119.116 38.0856 119.39 39.0435 119.595C39.7961 119.732 40.4803 119.869 41.3014 119.937C41.3698 119.458 41.575 119.047 41.7119 118.569C41.7119 118.5 41.7119 118.5 41.7119 118.432C41.7803 118.158 41.8487 117.884 41.8487 117.679C41.7119 117.611 41.6435 117.474 41.7119 117.269C41.7119 117.063 41.7803 116.926 41.7803 116.721C41.6435 116.926 41.5066 117.2 41.3698 117.405C39.9329 117.269 38.4277 116.858 36.9908 116.379C36.1698 116.105 35.2803 115.763 34.5277 115.421C34.1171 115.216 33.7066 115.079 33.2961 114.874C33.0224 114.737 32.7487 114.6 32.475 114.463L31.654 112.616C31.7908 112.411 31.9961 112.137 32.1329 112C32.5435 111.59 37.7435 108.374 37.8803 108.305L30.7645 110.974L30.354 110.837C29.875 110.632 29.3961 110.495 28.9171 110.29C28.8487 110.153 28.7119 110.016 28.6435 109.879C28.6435 109.605 28.575 109.263 28.575 108.99C28.575 108.784 28.575 108.511 28.575 108.305C28.7803 108.237 28.9171 108.169 29.1224 108.169L30.6277 107.758C31.654 107.484 32.6119 107.279 33.6382 106.937C33.9119 106.869 34.1171 106.8 34.4593 106.663C34.5277 106.663 34.5961 106.595 34.7329 106.595L34.8698 106.526L34.9382 106.458H35.0066L35.075 106.39L35.1435 106.321H35.2119L35.554 106.116L36.7856 105.158L39.2487 103.242L44.175 99.4791L44.654 99.137V98.5212C44.5171 98.5896 44.3803 98.5896 44.175 98.658C43.9014 98.7264 43.6277 98.8633 43.4224 99.0001C43.1487 99.137 42.875 99.0001 42.7382 98.7264C42.3961 98.5896 42.3277 98.0422 42.6698 97.9054C42.6698 97.9054 42.6698 97.9054 42.7382 97.9054C42.3961 97.7001 42.5329 97.0843 43.0119 97.0159C43.4908 97.0159 43.9014 96.8106 44.3119 96.6738C44.3803 96.6738 44.5171 96.6054 44.5856 96.6054C44.5171 95.5791 44.3119 94.6212 44.0382 93.6633C43.8329 92.9106 43.5592 92.158 43.2856 91.4054C43.0119 90.6527 42.7382 89.9001 42.3961 89.2159C41.7803 87.7791 41.0277 86.3422 40.275 85.0422C39.454 83.6738 38.6329 82.3738 37.675 81.1422C38.2908 82.5791 38.7698 84.0159 39.3171 85.4527C39.7961 86.8896 40.2066 88.3264 40.6171 89.7633C36.1698 85.3159 30.0803 80.8685 29.2592 80.6633C28.7803 80.5264 28.7119 80.5264 23.2382 82.4422C20.9803 83.1948 17.9698 84.2896 17.354 84.4264C17.2171 84.4264 17.0119 84.4264 16.6698 84.4264C13.5224 84.4264 11.5382 84.4264 10.7171 84.4264C10.4435 83.8791 9.96451 82.7159 9.75925 82.3054C9.62241 81.9633 9.55399 81.758 9.48556 81.6212C9.34872 81.3475 9.07504 81.0054 7.91188 79.6369C7.77504 79.4317 7.56978 79.2264 7.36451 78.9527C9.00662 78.0633 11.8119 76.0791 12.0856 75.8738C12.2224 75.6685 12.4961 74.9159 12.7014 74.2317C13.0435 74.0264 13.2487 73.8212 13.3856 73.7527C13.8645 73.4791 26.7277 69.5791 26.7277 69.5791L35.1435 67.8001C36.7856 66.3633 41.6435 61.0948 41.6435 61.0948C41.6435 61.0948 39.3171 61.5738 31.7908 64.7212C28.9856 65.8843 25.975 67.2527 25.6329 67.5264C25.3592 67.7317 15.2329 71.9054 10.3066 73.137C8.73293 73.137 7.36451 73.0685 6.40662 73.0685C6.47504 72.7948 6.54346 72.5212 6.6803 72.3843C7.70662 71.7001 14.0014 68.8948 19.954 66.2264H22.0066C22.0066 65.2001 22.2119 63.9685 22.4171 63.558C22.8961 63.4896 23.9908 63.6264 24.8803 63.8317L25.6329 64.037L34.3224 54.6633C34.8014 54.5948 35.6224 54.3896 36.9908 54.1843C38.2224 54.8685 40.754 56.4422 41.8487 58.0843C41.8487 58.0843 42.2592 54.7317 41.0961 53.5001C42.1908 53.2948 43.4908 53.0896 44.9277 52.8843C46.1592 53.5685 48.6908 55.1422 49.7856 56.7843C49.7856 56.7843 50.1961 53.5685 49.1014 52.2685C50.1277 52.1317 51.2908 51.9264 52.454 51.7896C52.5908 51.7896 52.7961 51.7212 52.9329 51.7212C54.2329 52.5422 55.9435 53.7738 56.8329 55.0054C56.8329 55.0054 57.1066 52.6791 56.5593 51.1738C62.2382 50.3527 68.5329 49.5317 75.3066 48.6422C75.375 48.7106 75.375 48.8475 75.3066 48.9843C75.0329 49.7369 68.8066 54.7317 67.6435 55.0054C66.4803 55.2791 64.2908 55.5527 62.9908 56.1685C61.2803 56.9896 60.5961 58.8369 60.5961 58.9738C60.6645 58.8369 61.554 56.9212 63.6066 56.3738C65.6593 55.8264 67.575 56.1685 69.5593 54.9369C71.5435 53.7054 77.8382 49.8738 78.7961 49.8054C79.2066 49.7369 79.2066 50.4212 79.0698 51.1738L70.7908 60.0685L89.1277 55.8264C88.1698 58.4948 86.254 63.4896 83.7224 68.9633C81.3961 72.3159 78.5224 75.9422 75.7856 77.7896C75.1698 76.9685 74.554 76.2159 73.9382 75.3948C73.1171 74.3001 72.3645 73.2054 71.6119 72.0422C71.7487 71.7685 71.954 71.4948 72.0908 71.2212C72.4329 70.7422 72.7066 70.1948 73.1171 69.7159C73.8014 68.6896 74.554 67.7317 75.3066 66.7738C76.0593 65.8159 76.8803 64.9264 77.7698 64.037C78.5908 63.1475 79.4803 62.258 80.4382 61.4369C79.4119 62.1212 78.3856 62.8054 77.3593 63.558C76.3329 64.3106 75.375 65.0633 74.4171 65.8843C73.8014 66.4317 73.1856 66.9791 72.5698 67.5948C71.7487 68.3475 70.7224 69.3054 69.8329 70.3317C67.7803 72.658 67.9171 74.2317 67.9171 74.2317C69.9698 77.9264 72.6382 82.0317 74.3487 84.4948V84.2896H74.8961V83.6738H75.3066V83.058H76.8119V82.7159H78.1119V83.4685H78.0435V83.9475H78.7277V86.8896H77.5645V89.0791H76.8803V89.8317H74.8277V89.558H74.554V89.8317H74.075V90.3106H73.254V90.5843H72.5698C70.175 92.9106 67.6435 94.6896 65.454 95.9896C65.7277 95.9212 65.9329 95.8527 66.2066 95.7843C66.8224 95.4422 67.4382 95.1685 68.054 94.8948C68.2593 94.758 68.6698 94.8264 68.7382 95.1001C68.875 95.1001 68.9435 95.0317 69.0803 95.0317C69.6277 94.8948 69.9014 95.6475 69.4224 95.8527C69.2856 95.9212 69.1487 96.058 68.9435 96.1264C69.0119 96.1949 69.0119 96.2633 69.0119 96.4001C69.0119 97.2212 68.875 98.0422 68.7382 98.8633C68.8066 99.4106 68.6698 99.958 68.6014 100.505C68.6014 100.574 68.6014 100.642 68.6014 100.711C68.6698 100.779 68.6698 100.847 68.7382 100.916C69.0803 102.079 68.875 103.242 68.7382 104.405C69.9698 104.132 71.2698 103.926 72.5014 103.721L72.9119 103.653C73.9382 102.969 75.0329 102.421 76.1961 102.011C76.8119 101.737 77.4961 101.532 78.1119 101.258C78.6593 100.984 79.275 100.711 79.8908 100.779C80.1645 100.847 80.3698 101.053 80.3698 101.258C80.4382 101.258 80.5066 101.19 80.575 101.19L80.4382 99.958C80.7119 99.958 81.054 99.958 81.3277 99.958V99.6159C81.1224 99.5475 80.9856 99.4106 80.9856 99.2054C80.9856 98.8633 80.9856 98.4527 81.054 98.1106C81.1224 97.4264 81.1908 96.8106 81.1908 96.1264C81.054 96.058 80.9171 95.9212 80.9171 95.7159C80.9171 95.3738 80.9171 95.0317 80.9171 94.6896C80.7119 94.5527 80.6435 94.3475 80.7803 94.0738C80.8487 94.0054 80.8487 93.8685 80.9171 93.8001C80.9171 93.8001 80.9171 93.7317 80.9856 93.7317C80.9856 93.3212 81.054 92.9791 81.054 92.5685V92.5001C80.7119 92.3633 80.575 91.8843 80.9856 91.6791C81.054 91.6791 81.054 91.6106 81.1224 91.6106C81.1224 91.4738 81.1908 91.4054 81.1908 91.2685V91.2001C81.1908 91.0633 81.2593 90.858 81.2593 90.7212H81.1908C80.7803 90.6527 80.7803 90.037 81.054 89.9001C81.2593 89.7633 81.3961 89.6949 81.6014 89.6264C81.6014 89.6264 81.6014 89.6264 81.6698 89.6264C81.6698 89.4212 81.8066 89.1475 82.1487 89.1475C82.2171 89.1475 82.354 89.1475 82.4224 89.1475C82.4908 89.1475 82.4908 89.0791 82.5593 89.0791C82.6277 89.0791 82.6277 89.0791 82.6961 89.0106V88.9422C82.8329 88.6685 83.1066 88.6685 83.3119 88.737C83.7224 88.6001 84.1329 88.4633 84.5435 88.3948C84.5435 88.3264 84.6119 88.3264 84.6803 88.258C84.8856 88.0527 85.0908 87.9159 85.2961 87.7791C84.4066 87.0948 83.5171 86.4106 82.6961 85.7264C82.2856 85.2475 81.8066 84.837 81.3961 84.358L85.8435 70.9475C89.8119 62.3264 92.3435 54.8685 92.3435 54.8001L93.0277 52.6791L78.3171 56.0317L82.2856 51.7896C85.4329 47.958 89.5382 45.1527 94.054 43.3054ZM34.1856 103.995L33.9119 104.2C33.7066 104.269 33.5014 104.337 33.2277 104.405C32.475 104.611 31.654 104.816 30.8329 105.021C30.354 104.474 29.8066 103.721 29.5329 103.037C29.1908 102.353 28.9171 101.258 28.7119 100.369C30.8329 101.532 33.2961 102.832 34.8698 103.516L34.1856 103.995ZM22.2119 85.3843C22.4856 87.7791 23.5803 90.1054 24.4014 91.5422C23.3066 91.1317 21.8698 90.5159 20.5698 89.558C19.6119 88.8738 18.3803 87.6422 17.5593 86.7527C18.1066 86.7527 19.0645 86.4791 22.2119 85.3843Z" fill="white"/>
<path d="M31.7903 77.0358C31.1061 76.7621 26.043 76.3516 26.043 76.3516C26.043 76.3516 32.3377 78.4042 35.6903 81.4147C35.6903 81.4147 32.4746 77.3095 31.7903 77.0358Z" fill="white"/>
<path d="M22.7589 73.8882C22.7589 73.8882 21.9379 75.804 13.9326 77.5829C13.9326 77.5829 20.6379 76.3513 22.3484 75.5303C23.9905 74.6408 22.7589 73.8882 22.7589 73.8882Z" fill="white"/>
<path d="M22.3483 77.8579C22.3483 77.8579 21.5272 79.6369 14.0693 81.279C14.0693 81.279 20.2957 80.1158 21.9378 79.3632C23.5114 78.6105 22.3483 77.8579 22.3483 77.8579Z" fill="white"/>
<path d="M53.6851 61.5723L43.4904 61.7775L49.0325 63.4881C45.0641 71.9723 35.7588 75.5302 35.7588 75.5302C52.3851 72.3144 53.6851 61.5723 53.6851 61.5723Z" fill="white"/>
<path d="M47.5947 77.8574C47.5947 77.8574 49.7842 84.1521 49.1684 93.6626C49.1684 93.6626 52.3158 87.5047 53.0684 79.1574C53.0684 79.1574 58.8842 71.4258 60.2526 62.7363C60.321 62.8047 56.1474 71.7679 47.5947 77.8574Z" fill="white"/>
<path d="M57.3105 82.0997C57.3105 82.0997 58.8842 86.3418 58.6105 92.8418C58.6105 92.8418 60.6632 88.5997 61.0737 82.9208C61.0737 82.9208 64.9053 77.5839 65.7948 71.6997C65.7948 71.6997 63.0579 77.8576 57.3105 82.0997Z" fill="white"/>
<path d="M149.678 34.7529L102.331 47.0003L104.247 42.0056L149.678 34.7529Z" fill="white"/>
<path d="M168.358 39.6104L92.7529 71.9735L96.8582 61.2998L98.5687 56.8525L168.358 39.6104Z" fill="white"/>
<path d="M103.221 80.3203C103.29 80.3203 103.358 80.2519 103.358 80.2519C103.153 80.0467 103.153 79.7046 103.495 79.5677C104.658 79.0204 105.958 78.6782 107.19 78.4046C107.121 78.1993 107.258 77.9256 107.532 77.8572C108.216 77.6519 108.969 77.3782 109.653 77.173C109.927 77.1046 110.2 77.0361 110.406 76.8993C110.406 76.7625 110.474 76.694 110.543 76.5572C111.021 75.9414 111.911 75.7361 112.595 75.6677C113.006 75.5993 113.416 75.5993 113.895 75.5993C114.306 75.4625 114.785 75.2572 115.195 75.1203C115.469 74.9835 115.743 74.8467 115.948 74.7098C116.085 74.6414 116.153 74.6414 116.221 74.6414C116.29 74.6414 116.29 74.573 116.358 74.573C116.564 74.3677 116.769 74.2309 116.906 74.094C117.385 73.7519 117.932 73.4098 118.548 73.4098C118.753 73.4098 118.958 73.4782 119.095 73.6151L138.116 63.4888L89.4004 84.0151L93.7109 87.0256C93.7109 85.7256 94.3267 84.4256 94.8741 83.2625C94.9425 83.1256 95.0793 83.0572 95.2162 83.0572C95.2846 82.9203 95.353 82.7151 95.5583 82.7151C96.9267 82.2361 98.2951 81.9625 99.6636 81.6204C99.8688 81.5519 100.074 81.6888 100.142 81.8256C100.621 81.6204 101.1 81.4151 101.579 81.2782C101.99 81.1414 102.332 81.0046 102.742 80.7993C102.879 80.594 103.016 80.3888 103.221 80.3203Z" fill="white"/>
<path d="M51.7685 112.753C52.7264 112.343 53.7527 111.932 54.7106 111.522C54.9843 111.385 55.1896 111.111 55.1896 110.769C55.1896 110.427 55.1896 110.016 55.258 109.674C55.258 109.401 55.0527 109.195 54.7791 109.332C54.4369 109.469 54.1633 109.606 53.8212 109.743C53.479 109.879 53.2054 110.016 52.8633 110.153C52.5212 110.29 52.1106 110.427 51.7685 110.632C50.7422 111.043 49.7159 111.453 48.6896 111.932C48.6212 112.685 48.6212 113.437 48.5527 114.122C48.6896 114.053 48.8948 113.985 49.0317 113.916C50.058 113.506 50.879 113.164 51.7685 112.753Z" fill="white"/>
<path d="M52.2487 120.483C51.3592 120.894 50.4013 121.236 49.5119 121.647C48.7592 121.989 48.075 122.262 47.3224 122.536C47.3224 123.425 47.254 124.383 47.1855 125.273C47.8698 124.999 48.6224 124.657 49.375 124.383C50.2645 123.973 51.2224 123.631 52.1119 123.22C52.3171 123.152 52.5224 122.878 52.5224 122.604C52.5224 121.989 52.5908 121.373 52.5908 120.757C52.6592 120.483 52.5224 120.347 52.2487 120.483Z" fill="white"/>
<path d="M53.0692 106.935C53.4113 106.798 53.685 106.661 54.0271 106.524C54.3692 106.388 54.6429 106.251 54.985 106.114C55.2587 105.977 55.4639 105.635 55.4639 105.361C55.4639 105.019 55.4639 104.609 55.5323 104.267C55.5323 103.993 55.3271 103.788 55.0534 103.924C54.0955 104.335 53.0692 104.745 52.1113 105.156C51.2902 105.498 50.4008 105.909 49.5113 106.251C49.3745 106.319 49.1692 106.388 49.0323 106.456C48.9639 107.209 48.9639 107.961 48.8955 108.645C49.9218 108.235 50.9481 107.824 51.9745 107.345C52.3166 107.209 52.6587 107.072 53.0692 106.935Z" fill="white"/>
<path d="M103.496 78.4037C103.359 78.4721 103.291 78.5405 103.154 78.5405L102.47 78.8826V78.7458L92.9595 82.7142C92.9595 82.7142 93.3016 84.2195 93.3016 84.63C93.3016 85.0405 93.4384 93.6616 93.4384 93.7984C93.4384 93.9353 89.7437 95.509 89.5384 95.6458C89.2648 95.7826 88.5121 95.2353 88.5121 95.2353C88.5121 95.2353 88.649 84.7669 89.4016 84.2195L79.9595 88.1879L79.8911 89.4195C79.8226 90.7195 79.7542 91.9511 79.7542 93.2511L79.6174 97.1511C79.6174 97.5616 79.549 97.9721 79.549 98.3826L79.4805 99.6826H79.0016C78.8648 99.6826 78.7963 99.6826 78.6595 99.6826C78.3174 99.6826 77.9753 99.7511 77.7016 99.8879L69.97 103.104L70.1069 100.641C70.1069 100.23 70.1753 99.7511 70.1753 99.3405L70.2437 97.9721L70.449 92.2932L61.0069 96.2616V97.0826L60.5279 96.9458C60.3226 96.9458 60.1858 96.8774 60.049 96.8774C59.57 96.8774 59.1595 96.9458 58.6805 97.1511L41.7805 104.198L41.7121 105.43C41.6437 106.867 41.5753 108.304 41.5068 109.741C41.4384 111.177 41.37 112.614 41.3016 114.051L41.0279 120.209V120.346V121.03L40.9595 122.398L40.6858 129.104C40.6858 129.446 40.6174 129.788 40.6174 130.13V130.677V130.746V131.362C40.6174 131.977 40.549 132.593 40.549 133.209L40.4121 136.219L48.8963 132.662L48.9647 131.43C48.9647 131.088 48.9647 130.814 49.0332 130.472L49.1016 129.446L50.1279 130.404C50.6069 130.883 51.2226 131.156 51.9069 131.156C52.3174 131.156 52.6595 131.088 53.07 130.951L61.0069 127.598L64.9753 125.956L78.0437 120.483L93.4384 114.051L93.5069 112.819C93.5753 112.067 93.5753 111.314 93.6437 110.562V109.809L94.3279 110.219C95.0121 110.63 95.6963 111.109 96.3121 111.519H96.3805C96.7911 111.793 97.3384 111.93 97.8174 111.93C98.2279 111.93 98.6384 111.862 99.049 111.656L104.249 109.467V108.851L104.728 108.919C104.796 108.919 104.933 108.919 105.002 108.919C105.412 108.919 105.823 108.851 106.233 108.646L117.66 103.856C119.165 103.241 120.328 101.53 120.396 99.8195C120.396 99.4774 120.396 99.2037 120.465 98.93L120.533 97.0826C120.533 96.6721 120.533 96.1932 120.602 95.7826L120.67 94.4826L120.738 92.2932C120.738 92.2247 120.738 92.1563 120.738 92.0195L120.807 90.9932V90.9247C120.807 90.7879 120.807 90.6511 120.807 90.5142C120.807 90.3774 120.807 90.2405 120.807 90.0353L120.875 86.8879L120.944 85.7932L121.149 81.6879L119.575 82.3721V81.6879C119.575 81.4826 119.575 81.2774 119.575 81.0721V81.0037C119.575 80.6616 119.575 80.3195 119.644 79.9774L119.712 78.9511L119.917 78.8142C120.738 78.2669 121.354 77.309 121.423 76.2826C121.423 75.9405 121.491 75.5984 121.491 75.2563V75.0511V74.8458C121.491 74.5037 121.491 74.23 121.559 73.8879L121.423 70.9458L103.496 78.4037ZM43.149 116.856C43.2174 115.967 43.2174 115.077 43.2858 114.119C43.3542 112.683 43.4226 111.246 43.4911 109.809C43.5595 108.372 43.6279 106.935 43.6963 105.498C45.5437 104.746 47.3911 103.925 49.2384 103.172C50.2647 102.762 51.2911 102.351 52.3174 101.872C54.7121 100.914 57.0384 99.8879 59.4332 98.8616C60.4595 98.4511 61.2805 98.9984 61.2121 100.162C61.1437 101.256 61.1437 102.351 61.0753 103.446C61.0753 104.062 60.7332 104.814 60.3226 105.362C60.7332 105.567 60.9384 106.046 60.9384 106.662C60.87 107.756 60.87 108.851 60.8016 109.946C60.7332 111.109 59.8437 112.409 58.8174 112.819C56.4226 113.846 54.0279 114.804 51.7016 115.83C50.6753 116.241 49.649 116.651 48.6226 117.13C46.7753 117.883 44.9279 118.704 43.0805 119.456C43.0805 118.704 43.0805 117.746 43.149 116.856ZM57.1753 119.73C57.1753 120.483 57.1069 121.235 57.1069 121.988C57.0384 122.946 56.3542 124.041 55.5332 124.383C55.1911 124.519 54.849 124.656 54.4384 124.862C54.849 125.272 55.2595 125.683 55.67 126.093C56.0805 126.504 56.4911 126.914 56.9016 127.325C55.3963 127.941 53.8911 128.556 52.4542 129.172C52.3858 129.172 52.3174 129.241 52.249 129.241C51.9069 129.377 51.5647 129.377 51.3595 129.172C50.6753 128.488 49.9226 127.804 49.2384 127.051C48.5542 127.325 47.87 127.598 47.1858 127.872C47.1858 128.214 47.1858 128.556 47.1174 128.898C47.049 129.719 47.049 130.609 46.9805 131.43C45.4753 132.046 43.9016 132.73 42.3963 133.346C42.4647 132.525 42.4647 131.635 42.5332 130.814C42.5332 130.267 42.6016 129.719 42.6016 129.241C42.67 128.009 42.7384 126.777 42.7384 125.546C42.8068 124.314 42.8753 123.083 42.8753 121.851C44.2437 121.235 45.6805 120.688 47.049 120.072C47.1858 120.004 47.3226 119.935 47.3911 119.935C48.0753 119.662 48.8279 119.319 49.5805 119.046C51.6332 118.225 53.6858 117.335 55.7384 116.446C56.5595 116.104 57.2437 116.583 57.1753 117.541C57.2437 118.225 57.2437 118.977 57.1753 119.73ZM63.2647 118.977C63.1963 120.893 63.1279 122.809 62.9911 124.725C61.4858 125.341 59.9121 126.025 58.4069 126.641C58.4753 124.725 58.5437 122.809 58.6805 120.893C58.749 118.977 58.8174 117.062 58.9542 115.146C60.4595 114.53 61.9647 113.846 63.5384 113.23C63.47 115.077 63.3332 116.993 63.2647 118.977ZM62.7858 110.63C62.4437 110.356 62.3069 109.946 62.3069 109.398C62.3753 108.304 62.3753 107.209 62.4437 106.183C62.5121 105.088 62.5121 103.993 62.5805 102.967C62.5805 102.83 62.5805 102.625 62.5805 102.488C62.649 101.667 62.649 100.846 62.7174 100.025C62.7174 99.2037 62.7858 98.3826 62.8542 97.5616C64.7016 96.809 66.549 96.0563 68.3963 95.2353C68.3279 96.1248 68.3279 97.0142 68.2595 97.9721C68.1911 98.8616 68.1911 99.7511 68.1226 100.641C68.0542 101.735 68.0542 102.762 67.9858 103.856C67.9858 104.404 67.9174 104.951 67.9174 105.498C67.9174 105.567 67.9174 105.567 67.9174 105.635C67.9174 105.841 68.1226 105.977 68.3279 105.841C68.6016 105.704 68.8753 105.567 69.149 105.498C69.4911 105.362 69.7648 105.225 70.1069 105.088C70.1753 105.019 70.3121 105.019 70.3805 104.951C70.449 104.883 70.5858 104.883 70.6542 104.814C70.9963 104.677 71.3384 104.541 71.6805 104.404C72.1595 104.198 72.57 104.062 73.049 103.856C73.3226 103.719 73.5279 103.651 73.8016 103.514C73.9384 103.446 74.0069 103.446 74.0753 103.377C74.4858 103.172 74.8963 103.035 75.3753 102.83C75.7174 102.693 76.0595 102.556 76.4016 102.419C76.6753 102.283 76.949 102.214 77.1542 102.077C77.5648 101.941 77.9069 101.735 78.3174 101.598C78.7279 101.462 79.0016 101.667 79.0016 102.077C79.0016 102.488 78.9332 102.967 78.9332 103.377C78.9332 103.719 78.9332 104.13 78.8648 104.472C78.5911 104.609 78.3174 104.677 78.0437 104.814C77.7016 104.951 77.2911 105.156 76.949 105.293C75.1016 106.046 73.2542 106.798 71.4753 107.619C71.1332 107.756 70.7911 107.893 70.449 108.03C69.97 108.235 69.4226 108.441 68.9437 108.646C68.6016 108.783 68.3279 108.919 67.9858 109.056C67.9174 109.056 67.849 109.125 67.849 109.125C67.2332 109.398 66.6858 109.604 66.07 109.877C65.3174 110.151 64.6332 110.493 63.949 110.767C63.6069 110.972 63.1279 110.904 62.7858 110.63ZM79.3437 107.414C79.3437 107.756 79.3437 108.167 79.2753 108.509C79.2753 108.851 79.0016 109.262 78.6595 109.398C78.3174 109.535 78.0437 109.672 77.7016 109.809C77.5648 109.877 77.4279 109.946 77.2911 110.014C75.5805 110.698 73.9384 111.451 72.2279 112.135H72.1595C71.4753 112.409 70.7911 112.683 70.1069 113.025C69.9016 113.093 69.6963 113.367 69.6963 113.641C69.6963 113.983 69.6963 114.256 69.6279 114.53C69.6279 114.735 69.7648 114.872 69.97 114.804C70.6542 114.53 71.3384 114.188 72.0911 113.914H72.1595C74.0069 113.162 75.7858 112.409 77.6332 111.656C78.4542 111.314 79.1384 111.793 79.07 112.751C79.07 113.367 79.0016 113.983 79.0016 114.53C79.0016 115.146 78.9332 115.762 78.9332 116.309C78.8648 117.267 78.1805 118.362 77.3595 118.704C75.5121 119.456 73.7332 120.209 71.8858 121.03H71.8174C69.97 121.783 68.1911 122.535 66.3437 123.288C66.0016 123.425 65.5911 123.63 65.249 123.767C65.1121 123.835 64.9753 123.904 64.8384 123.972C64.8384 123.698 64.8384 123.356 64.9069 123.083C64.9069 122.741 64.9753 122.33 64.9753 121.988C64.9753 121.646 65.249 121.235 65.5911 121.098C65.9332 120.962 66.2069 120.825 66.549 120.688C66.6858 120.619 66.8226 120.551 66.9595 120.483C68.67 119.798 70.3121 119.046 72.0226 118.362H72.0911C72.7753 118.088 73.4595 117.814 74.1437 117.472C74.349 117.404 74.5542 117.13 74.5542 116.856C74.5542 116.514 74.5542 116.241 74.6226 115.967C74.6226 115.762 74.4858 115.625 74.2805 115.693C73.5963 115.967 72.9121 116.309 72.1595 116.583H72.0911C70.2437 117.335 68.4648 118.088 66.6174 118.841C65.7963 119.183 65.1121 118.704 65.1121 117.746C65.1121 117.13 65.1805 116.514 65.1805 115.967C65.1805 115.351 65.249 114.735 65.249 114.188C65.3174 113.23 66.0016 112.135 66.8911 111.793C68.7384 111.041 70.5174 110.288 72.3648 109.535C72.3648 109.535 72.3648 109.535 72.4332 109.535C74.2805 108.783 76.0595 108.03 77.9069 107.209C78.249 107.072 78.6595 106.867 79.0016 106.73C79.1384 106.662 79.2753 106.593 79.4121 106.525C79.3437 106.867 79.3437 107.141 79.3437 107.414ZM81.3279 101.462C81.3963 100.504 81.3963 99.4774 81.4648 98.5195C81.4648 98.109 81.4648 97.6984 81.5332 97.2879C81.6016 95.9879 81.67 94.6879 81.67 93.4563C81.7384 92.1563 81.8069 90.8563 81.8069 89.5563C83.6542 88.8037 85.5016 87.9826 87.349 87.23C87.2805 88.53 87.2121 89.83 87.2121 91.13C87.1437 92.43 87.0753 93.73 87.0753 94.9616C87.0753 95.3721 87.0069 95.7826 87.0069 96.1932C87.0069 96.6037 86.9384 97.0826 86.9384 97.4932C86.9384 97.7669 87.1437 97.9721 87.4174 97.8353C88.1016 97.5616 88.7858 97.2195 89.5384 96.9458C91.0437 96.33 92.4805 95.7142 93.9858 95.0984C94.2595 94.9616 94.4648 94.6879 94.4648 94.3458C94.4648 94.0721 94.4648 93.73 94.5332 93.4563C94.5332 92.909 94.6016 92.3616 94.6016 91.8142C94.67 90.5142 94.7384 89.2142 94.7384 87.9142C94.8069 86.6142 94.8753 85.3142 94.8753 84.0826C96.7227 83.33 98.57 82.509 100.417 81.7563C100.349 83.0563 100.281 84.3563 100.281 85.6563C100.212 86.9563 100.144 88.2563 100.144 89.5563C100.144 90.1037 100.075 90.6511 100.075 91.1984C100.007 92.0195 100.007 92.909 99.9384 93.73C99.87 94.8932 98.9805 96.1932 97.9542 96.6037C95.0805 97.8353 92.2069 98.9984 89.4016 100.23C87.2805 101.119 85.2279 102.009 83.1753 102.83C82.0805 103.241 81.2595 102.625 81.3279 101.462ZM85.4332 109.672C85.3648 111.588 85.2963 113.504 85.1595 115.419C83.6542 116.035 82.0805 116.719 80.5753 117.335C80.6437 115.419 80.7121 113.504 80.849 111.588C80.9174 109.672 80.9858 107.756 81.1226 105.841C82.6279 105.225 84.1332 104.541 85.7069 103.925C85.57 105.841 85.5016 107.756 85.4332 109.672ZM102.47 102.556C102.402 104.472 102.333 106.388 102.196 108.304C100.828 108.851 99.4595 109.467 98.1595 110.014C97.8174 110.151 97.4753 110.151 97.2016 110.014C96.3121 109.398 95.3542 108.851 94.4648 108.235C93.5753 107.619 92.6174 107.072 91.7279 106.456C91.6595 107.483 91.6595 108.577 91.5911 109.604C91.5226 110.63 91.5226 111.725 91.4542 112.751C89.949 113.367 88.3753 114.051 86.87 114.667C86.9384 112.751 87.0069 110.835 87.1437 108.919C87.2121 107.004 87.2805 105.088 87.4174 103.172C88.7858 102.625 90.0858 102.077 91.4542 101.462C91.7963 101.325 92.1384 101.325 92.4121 101.462C93.3016 102.077 94.2595 102.625 95.149 103.241C96.0384 103.856 96.9963 104.404 97.8858 105.019C97.9542 103.993 97.9542 102.898 98.0227 101.872C98.0911 100.846 98.0911 99.7511 98.1595 98.7248C99.6648 98.109 101.17 97.4248 102.744 96.809C102.675 98.7248 102.538 100.641 102.47 102.556ZM118.754 90.9247C118.754 91.2669 118.686 91.6774 118.686 92.0195C118.686 92.3616 118.412 92.7721 118.07 92.909C117.728 93.0458 117.454 93.1826 117.112 93.3195C116.223 93.6616 115.402 94.0721 114.581 94.4142C114.307 94.5511 114.033 94.6879 113.691 94.7563C113.007 95.03 112.254 95.3721 111.57 95.6458H111.502C110.681 95.9879 109.928 96.33 109.175 96.6037C108.97 96.6721 108.833 96.8774 108.765 97.0826C108.765 97.1511 108.765 97.1511 108.765 97.2195C108.696 98.109 108.696 98.9984 108.628 99.8879C108.559 100.777 108.56 101.667 108.491 102.556C108.491 102.625 108.491 102.625 108.491 102.625C108.491 102.83 108.696 102.898 108.833 102.83C109.654 102.488 110.407 102.146 111.159 101.872C111.912 101.53 112.596 101.256 113.349 100.983C113.486 100.914 113.623 100.777 113.691 100.572C113.691 100.504 113.76 100.435 113.76 100.367C113.76 99.9563 113.759 99.5458 113.828 99.1353C113.828 99.0669 113.828 99.0669 113.828 98.9984C112.938 99.3405 112.117 99.7511 111.228 100.093C111.023 100.162 110.817 100.23 110.681 100.298C110.338 100.435 110.133 100.23 110.133 99.8879C110.133 99.2037 110.202 98.5879 110.202 97.9037C110.544 97.7669 110.954 97.5616 111.365 97.4247C112.733 96.8774 114.102 96.2616 115.47 95.7142C116.496 95.3037 117.454 94.8932 118.481 94.4142C118.481 95.3037 118.412 96.1932 118.344 97.0142C118.344 97.0826 118.344 97.0826 118.344 97.1511C118.344 97.6984 118.275 98.2458 118.275 98.7248C118.275 99.0669 118.275 99.3405 118.207 99.6826C118.138 100.641 117.454 101.735 116.633 102.077C116.017 102.351 115.47 102.556 114.854 102.83C113.554 103.377 112.254 103.925 111.023 104.472C109.107 105.293 107.191 106.114 105.207 106.867C104.386 107.209 103.702 106.73 103.702 105.772C103.702 105.43 103.702 105.088 103.77 104.814C103.838 103.651 103.838 102.488 103.907 101.256C103.975 100.093 104.044 98.8616 104.044 97.6984C104.112 96.7405 104.796 95.6458 105.617 95.3037C106.233 95.03 106.781 94.8248 107.396 94.5511C108.696 94.0037 110.065 93.4563 111.433 92.8405H111.502C112.254 92.4984 113.007 92.2247 113.76 91.8826C114.033 91.7458 114.238 91.6774 114.512 91.5405C114.786 91.4037 115.06 91.3353 115.333 91.1984C115.949 90.9247 116.496 90.7195 117.112 90.4458C117.591 90.2405 118.138 90.0353 118.617 89.83C118.823 90.3774 118.754 90.6511 118.754 90.9247ZM119.37 74.9142C119.37 75.3247 119.302 75.8037 119.302 76.2142C119.302 76.6247 118.96 77.1721 118.549 77.309C118.138 77.4458 117.796 77.6511 117.386 77.7879C117.112 77.9247 116.838 77.9932 116.565 78.13C116.223 78.2669 115.881 78.4037 115.538 78.5405C115.128 78.7458 114.717 78.8826 114.238 79.0879C114.102 79.1563 114.033 79.1563 113.965 79.2247C113.691 79.3616 113.486 79.43 113.212 79.5669C112.733 79.7721 112.323 79.909 111.844 80.1142C111.365 80.3195 110.817 80.5248 110.338 80.73C110.202 80.7984 110.133 80.7984 110.065 80.8669C109.723 81.0037 109.449 81.1405 109.107 81.2774C108.833 81.4142 108.559 81.5511 108.286 81.6195C108.081 81.6879 107.875 81.9616 107.807 82.2353C107.807 82.3037 107.807 82.3037 107.807 82.3721C107.807 82.9195 107.738 83.4669 107.738 84.0142C108.149 83.809 108.559 83.6721 109.038 83.4669C109.517 83.2616 109.996 83.0563 110.475 82.8511C110.954 82.6458 111.433 82.4405 111.844 82.2353C112.528 81.9616 113.212 81.6879 113.896 81.4142C114.854 81.0037 115.881 80.5932 116.838 80.1826C117.112 80.0458 117.386 79.9774 117.66 79.8405C117.66 80.1826 117.591 80.5932 117.591 80.9353C117.591 81.3458 117.523 81.8247 117.523 82.2353C117.523 82.6458 117.181 83.1932 116.77 83.33C116.359 83.4669 115.949 83.6721 115.607 83.809C115.333 83.9458 115.06 84.0142 114.786 84.1511C114.444 84.2879 114.033 84.4247 113.691 84.63C112.528 85.109 111.433 85.5879 110.27 86.0669C109.791 86.2721 109.312 86.4774 108.833 86.6826C108.628 86.7511 108.423 86.8879 108.217 86.9563C108.012 87.0248 107.807 87.1616 107.533 87.23C107.533 87.7774 107.465 88.3247 107.465 88.8721C107.465 88.9405 107.465 88.9405 107.465 89.009C107.533 89.2142 107.67 89.3511 107.944 89.2142C108.217 89.0774 108.491 89.009 108.765 88.8721C109.107 88.7353 109.381 88.5984 109.723 88.4616C110.817 87.9826 111.912 87.5721 113.007 87.0932C113.212 87.0247 113.417 86.9563 113.623 86.8195C114.786 86.3405 115.881 85.8616 117.044 85.3826C117.386 85.2458 117.796 85.109 118.138 84.9037C118.412 84.7669 118.686 84.6984 118.959 84.5616C118.959 84.9037 118.891 85.3142 118.891 85.6563C118.891 86.0669 118.823 86.5458 118.823 86.9563C118.823 87.3669 118.481 87.9142 118.07 88.0511C117.66 88.1879 117.317 88.3932 116.907 88.53C116.633 88.6669 116.359 88.7353 116.086 88.8721C115.744 89.009 115.402 89.1458 114.991 89.2826C112.87 90.1721 110.749 91.0616 108.559 91.9511C107.602 92.3616 106.644 92.7721 105.686 93.1826C104.933 93.4563 104.249 93.7984 103.565 94.0721C102.538 94.4826 101.717 93.9353 101.786 92.7721C101.786 92.3616 101.854 91.9511 101.854 91.609C101.923 90.1721 101.991 88.7353 102.059 87.2984C102.128 85.8616 102.196 84.4247 102.265 82.9879C102.265 82.4405 102.538 81.8247 102.881 81.2774C103.223 80.73 103.702 80.3195 104.249 80.0458C104.933 79.7721 105.686 79.43 106.37 79.1563C106.986 78.8826 107.533 78.6774 108.149 78.4037C108.217 78.4037 108.217 78.3353 108.286 78.3353C108.628 78.1984 108.902 78.0616 109.244 77.9247C109.723 77.7195 110.202 77.5142 110.749 77.309C111.159 77.1037 111.57 76.9669 111.981 76.7616C113.828 76.009 115.607 75.2563 117.523 74.4353C117.865 74.2984 118.275 74.1616 118.617 73.9563C118.891 73.8195 119.165 73.7511 119.438 73.6142C119.438 74.23 119.37 74.5721 119.37 74.9142Z" fill="white"/>
<path d="M88.9902 95.1684L92.6165 93.6631V93.321C92.6165 93.1158 92.6165 92.5684 92.6165 92.5684C92.6165 92.2947 92.685 91.0631 92.685 90.6526L93.0271 82.7842L89.4692 84.2894L89.1271 91.0631L88.9902 95.1684Z" fill="white"/>
<path d="M118.889 74.6426L118.752 74.7112H118.684C118.821 74.7112 118.889 74.7112 118.889 74.6426Z" fill="white"/>
<path d="M88.1019 86.7526C88.3072 86.2737 88.444 85.9316 88.5125 85.6579C88.5125 85.6579 88.6493 85.0421 88.923 84.8368C88.923 84.8368 89.0598 84.7 89.2651 84.4947C89.2651 84.4947 89.3335 84.4263 89.4019 84.3579C89.4019 84.3579 89.4019 84.3579 89.4704 84.3579C89.5388 84.3579 89.5388 84.3579 89.6072 84.3579C89.8809 84.2895 90.223 84.221 90.4967 84.221C90.7704 84.1526 91.1125 84.0158 91.3862 83.9474C91.6598 83.8105 91.9335 83.6737 92.2756 83.5368C93.1651 83.2632 94.0546 82.9895 94.8756 82.7842C97.0651 82.0316 99.2546 81.3474 101.444 80.5947C98.9809 81.7579 96.4493 82.921 93.9177 84.0842C93.8493 85.3158 93.7809 86.5474 93.7125 87.7789C93.7809 90.0368 93.8493 92.2263 93.9177 94.4842C91.8651 95.3737 89.744 96.2632 87.6914 97.1526C87.8967 93.5947 88.0335 90.1737 88.1019 86.7526Z" fill="white"/>
<path d="M71.6114 91.7472C71.543 91.6788 71.543 91.6104 71.4746 91.6104V91.6788C71.4746 91.7472 71.4746 91.8157 71.4746 91.8157C71.4062 91.8841 71.4062 91.8841 71.3377 91.8841C70.5851 92.1578 69.9009 92.4999 69.1483 92.7735C67.7798 93.3893 66.343 93.9367 64.9746 94.5525C64.9062 94.5525 64.9062 94.5525 64.8377 94.6209C64.7009 94.4841 64.6325 94.4157 64.4956 94.2788H64.4272C63.743 94.5525 63.1272 94.8262 62.443 95.0999C62.3746 95.0999 62.3746 95.1683 62.3062 95.2367C62.2377 95.3735 62.1009 95.5788 62.0325 95.7157C61.964 95.7841 61.9641 95.7841 61.8956 95.8525C61.143 96.1262 60.4588 96.4683 59.7062 96.742C57.1746 97.8367 54.5746 98.9314 52.043 99.9578C50.8798 100.437 49.6483 100.916 48.4851 101.463C47.1167 102.079 45.7483 102.626 44.3798 103.174C44.3114 103.174 44.3114 103.242 44.243 103.242C44.243 103.037 44.243 102.831 44.3114 102.626C44.3114 102.421 44.3114 102.216 44.3798 102.01C44.4483 101.805 44.3798 101.6 44.4483 101.395C44.4483 101.189 44.4483 100.984 44.5167 100.779C44.5167 100.574 44.5167 100.368 44.5851 100.163C44.5851 99.9578 44.5851 99.7525 44.6535 99.5472C44.6535 99.342 44.6535 99.1367 44.7219 98.9314C44.6535 98.9314 44.6535 98.9314 44.6535 98.9314C44.243 99.1367 43.7641 99.2735 43.3535 99.4788C43.0114 99.6157 42.6693 99.7525 42.3272 99.8893H42.2588C42.3272 98.863 42.3956 97.8367 42.4641 96.742C42.4641 96.6735 42.5325 96.6735 42.6009 96.6735C43.2851 96.3999 43.9693 96.1262 44.6535 95.7841C46.9798 94.8262 49.2377 93.8683 51.5641 92.9104C54.1641 91.8157 56.7641 90.7209 59.3641 89.6262C59.4325 89.6262 59.4325 89.6262 59.5009 89.5578C59.5009 90.8578 59.5009 92.1578 59.5009 93.3893H59.5693C59.5693 93.3209 59.6377 93.3209 59.6377 93.2525C60.5956 91.6104 61.4851 89.9683 62.443 88.3946C62.5114 88.3262 62.5114 88.2578 62.5798 88.2578C63.1272 88.0525 63.6062 87.8472 64.1535 87.5735C64.3588 87.5051 64.564 87.4367 64.7693 87.4367C65.1114 87.4367 65.3851 87.5735 65.5904 87.8472C65.6588 87.9156 65.7272 88.0525 65.8641 88.1209C66.0009 88.3262 66.2062 88.463 66.343 88.6683C66.8219 89.2841 67.3009 89.8314 67.8483 90.4472L67.9167 90.5157C67.9167 90.5157 67.9167 90.5157 67.9167 90.4472C67.9167 90.242 67.9167 90.0367 67.9851 89.763C67.9851 89.4893 68.0535 89.2157 68.0535 88.8735C68.0535 88.7367 68.0535 88.5999 68.0535 88.463C68.0535 88.0525 68.1219 87.5735 68.1219 87.163C68.1219 86.8893 68.1904 86.6157 68.1904 86.342C68.1904 86.1367 68.1904 85.9314 68.2588 85.7946C68.2588 85.7946 68.3272 85.7946 68.3272 85.7262C69.1483 85.3841 69.9009 85.042 70.7219 84.6999C70.8588 84.6314 71.064 84.563 71.2693 84.563C71.6798 84.563 72.0219 84.6999 72.2272 85.042C72.364 85.2472 72.5009 85.4525 72.7062 85.6578C72.843 85.863 72.9798 86.0683 73.1167 86.2051L73.1851 86.2735C73.2535 86.2735 73.2535 86.2051 73.2535 86.2051C73.4588 85.7946 73.6641 85.3841 73.8693 85.042C74.143 84.563 74.4167 84.0841 74.6904 83.5367C74.7588 83.3999 74.8956 83.1946 75.0325 83.0578C75.2377 82.8525 75.443 82.7157 75.7167 82.5788C76.6746 82.1683 77.7009 81.7578 78.6588 81.3472C78.7272 81.3472 78.7956 81.2788 78.8641 81.2788H78.9325C78.7956 83.6735 78.5904 86.1367 78.4535 88.5314C78.4535 88.5999 78.3851 88.5999 78.3167 88.5999C77.8377 88.8051 77.3588 89.0104 76.8798 89.2157C75.3062 89.8999 73.7325 90.5157 72.0904 91.1999C71.6798 91.7472 71.6798 91.7472 71.6114 91.7472ZM77.2219 88.463C77.2219 88.2578 77.2219 88.1209 77.2904 87.9841C77.2904 87.7104 77.3588 87.3683 77.3588 87.0946C77.3588 86.8209 77.4272 86.5472 77.4272 86.2735C77.4272 85.9999 77.4956 85.7262 77.4956 85.4525C77.4956 85.1788 77.5641 84.9051 77.5641 84.6314C77.5641 84.1525 77.6325 83.6735 77.6325 83.1946C77.6325 83.1946 77.6325 83.1946 77.6325 83.1262H77.5641C76.9483 83.3999 76.3325 83.6735 75.6483 83.9472C75.5114 84.0157 75.443 84.0841 75.3746 84.1525C75.3062 84.2209 75.1693 84.3578 75.1009 84.4946C74.6219 85.3157 74.2114 86.2051 73.7325 87.0262C73.5272 87.4367 73.2535 87.9157 73.0483 88.3262C73.0483 88.3946 73.0483 88.3946 72.9798 88.463C72.9798 88.3946 72.9114 88.3946 72.9114 88.3946C72.5693 87.9157 72.1588 87.3683 71.8167 86.8893C71.6114 86.6157 71.4746 86.4104 71.2693 86.1367C71.2009 85.9999 71.0641 85.9999 70.9272 85.9999C70.8588 85.9999 70.7904 85.9999 70.7219 86.0683C70.1062 86.342 69.4904 86.6157 68.8062 86.8893C68.8062 86.8893 68.7377 86.8893 68.7377 86.9578C68.6009 88.7367 68.5325 90.5157 68.3956 92.2946C68.5325 92.2946 68.6009 92.2262 68.7377 92.1578C68.8746 92.0893 68.943 92.0893 69.0798 92.0209C69.2167 91.9525 69.2851 91.9525 69.4219 91.8841C69.5588 91.8157 69.6272 91.8157 69.7641 91.7472C69.9009 91.6788 69.9693 91.6788 70.1062 91.6104C70.243 91.542 70.3114 91.542 70.4483 91.4735C70.5851 91.4051 70.6535 91.4051 70.7904 91.3367C70.8588 90.6525 70.8588 90.0367 70.9272 89.3525L70.9956 89.4209C71.3377 89.8999 71.6798 90.3104 72.0219 90.7893L72.0904 90.8578H72.1588C72.7062 90.6525 73.1851 90.4472 73.7325 90.242C73.8009 90.242 73.8009 90.1735 73.8693 90.1051C74.2798 89.4209 74.6219 88.6683 75.0325 87.9841C75.1009 87.8472 75.1693 87.7788 75.2377 87.642C75.2377 87.642 75.2377 87.5735 75.3062 87.642C75.3062 87.8472 75.3062 88.0525 75.2377 88.3262C75.2377 88.5314 75.2377 88.8051 75.1693 89.0104C75.1693 89.2157 75.1009 89.4209 75.1009 89.6946C75.1693 89.6946 75.1693 89.6946 75.1693 89.6262C75.7167 89.0788 76.4693 88.7367 77.2219 88.463ZM58.2693 91.1314C58.2009 91.1314 58.2009 91.1314 58.1325 91.1999C56.0798 92.0209 54.0956 92.9104 52.043 93.7999C51.6325 94.0051 51.3588 94.2788 51.2219 94.7578C51.2219 94.8262 51.2219 94.8262 51.2219 94.8946C51.2219 95.0314 51.2219 95.1683 51.1535 95.3051C51.1535 95.7157 51.0851 96.1946 51.0851 96.6051C51.0851 97.0841 51.0167 97.6314 51.0167 98.1104C51.0167 98.2472 51.0167 98.4525 50.9483 98.5893C50.9483 98.6578 50.9483 98.7946 50.9483 98.863C50.9483 99.1367 51.1535 99.2736 51.4272 99.2736C51.5641 99.2736 51.6325 99.2051 51.7693 99.2051C53.6167 98.4525 55.3956 97.6999 57.243 96.8788C57.3798 96.8104 57.5167 96.742 57.6535 96.6735C57.8588 96.6051 57.9956 96.3999 57.9956 96.1946C57.9956 95.9209 58.0641 95.6472 58.0641 95.3735V95.3051C57.9956 95.3051 57.9956 95.3051 57.9272 95.3051C57.7219 95.3735 57.5167 95.442 57.3798 95.5788C56.1483 96.1262 54.8483 96.6051 53.6167 97.1525C53.6167 97.1525 53.5483 97.1525 53.5483 97.2209C53.4114 97.2209 53.343 97.2209 53.343 97.0841C53.343 97.0157 53.343 96.9472 53.343 96.8788C53.343 96.742 53.343 96.6051 53.343 96.4683C53.343 96.4683 53.4114 96.4683 53.4114 96.3999C53.8219 96.263 54.1641 96.0578 54.5746 95.9209C55.3956 95.5788 56.2167 95.2367 57.0377 94.8946C57.3114 94.7578 57.4483 94.6209 57.4483 94.3472C57.4483 94.2788 57.4483 94.2104 57.4483 94.142C57.4483 93.9367 57.4483 93.7999 57.4483 93.5946V93.5262C57.243 93.5946 57.0377 93.663 56.8325 93.7999C56.6272 93.8683 56.4219 93.9367 56.2851 94.0735C56.0798 94.142 55.8746 94.2104 55.7377 94.3472C55.5325 94.4157 55.3272 94.4841 55.1219 94.6209C54.9167 94.6893 54.7114 94.7578 54.5746 94.8946C54.3693 94.963 54.1641 95.0314 54.0272 95.1683C53.8219 95.2367 53.6167 95.3051 53.4114 95.442C53.4114 95.3736 53.4114 95.3735 53.4114 95.3735C53.4114 95.2367 53.4114 95.0314 53.4798 94.8946C53.4798 94.7578 53.5483 94.6209 53.7535 94.5525H53.8219C54.7798 94.142 55.8062 93.7314 56.7641 93.3209C57.1746 93.1841 57.5167 92.9788 57.9272 92.842C57.9956 92.842 58.0641 92.7736 58.1325 92.7051C58.2693 92.5683 58.3377 92.4999 58.3377 92.2946C58.3377 92.0893 58.3377 91.8841 58.4062 91.6788C58.2693 91.3367 58.2693 91.2683 58.2693 91.1314ZM58.8167 96.1946C59.7062 95.8525 60.5272 95.5104 61.3483 95.1683C61.4167 95.1683 61.4167 95.0999 61.4851 95.0999C61.5535 94.8946 61.6904 94.7578 61.7588 94.5525C61.7588 94.4841 61.8272 94.4841 61.8956 94.4157C62.8535 94.0051 63.8114 93.5946 64.7009 93.2525H64.7693C64.9062 93.3893 64.9746 93.5262 65.043 93.5946C65.1798 93.5262 67.5746 92.5683 67.643 92.4999C67.643 92.4314 67.5746 92.4314 67.5746 92.363C66.7535 91.3367 65.9325 90.3788 65.1114 89.3525C64.9746 89.1472 64.7693 88.942 64.6325 88.7367C64.5641 88.6683 64.4956 88.5999 64.3588 88.5999C64.2904 88.5999 64.2219 88.5999 64.0851 88.6683C63.6746 88.8735 63.2641 89.0104 62.7851 89.2157C62.7167 89.2157 62.6483 89.2841 62.6483 89.3525C61.8956 90.5841 61.2114 91.8841 60.4588 93.1157C59.9114 94.0735 59.3641 95.0314 58.8167 95.9893C58.8167 96.1262 58.8167 96.1262 58.8167 96.1946ZM43.0114 98.7946C43.1483 98.7262 43.2167 98.7262 43.3535 98.6578C43.4904 98.5893 43.6272 98.5893 43.6956 98.5209C43.8325 98.4525 43.9009 98.4525 44.0377 98.3841C44.1746 98.3157 44.243 98.3157 44.3798 98.2472C44.5167 98.1788 44.5851 98.1788 44.7219 98.1104C44.8588 98.042 44.9956 97.9735 45.0641 97.9735C45.2009 97.9051 45.2693 97.8367 45.4062 97.8367C45.4062 97.9051 45.4062 97.9735 45.4062 97.9735C45.4062 98.2472 45.3377 98.5893 45.3377 98.863C45.3377 99.1367 45.2693 99.4104 45.2693 99.6841C45.2693 99.9578 45.2009 100.3 45.2009 100.574C45.2009 100.847 45.1325 101.121 45.1325 101.395C45.1325 101.531 45.1325 101.737 45.1325 101.874V101.942C45.2009 101.942 45.2009 101.942 45.2009 101.942C45.8851 101.668 46.6377 101.326 47.3219 101.052C47.3219 101.052 47.3904 101.052 47.3904 100.984C47.3904 100.916 47.3904 100.847 47.3904 100.779C47.3904 100.642 47.3904 100.437 47.3904 100.3C47.3904 100.026 47.4588 99.6841 47.4588 99.4104C47.4588 99.1367 47.5272 98.863 47.5272 98.6578C47.5272 98.3841 47.5956 98.1104 47.5956 97.8367C47.5956 97.563 47.6641 97.2209 47.6641 96.9472C47.6641 96.8788 47.6641 96.8788 47.6641 96.8104C47.7325 96.8104 47.7325 96.742 47.8009 96.742C48.4851 96.4683 49.1693 96.1262 49.8535 95.8525C49.9219 95.8525 49.9904 95.7841 50.0588 95.7841C50.1956 95.6472 50.2641 95.5788 50.2641 95.3735C50.2641 95.3051 50.2641 95.1683 50.2641 95.0999C50.2641 94.963 50.2641 94.7578 50.2641 94.6209V94.5525C50.1956 94.5525 43.0114 97.563 42.8746 97.6314C43.0114 97.8367 42.943 98.6578 43.0114 98.7946Z" fill="white"/>
<path d="M63.402 91.6108C63.4704 91.6793 63.9494 92.2266 64.0178 92.2951C63.6072 92.5003 63.1283 92.6372 62.7178 92.8424C62.923 92.4319 63.1283 92.0898 63.402 91.6793C63.402 91.6108 63.402 91.6108 63.402 91.6108Z" fill="white"/>
<path d="M77.7689 83.1262C77.7689 83.742 77.8373 84.3577 77.7689 85.042C77.7005 86.4788 77.5636 87.7104 77.29 88.8735C75.7163 89.5577 74.1426 90.1735 72.5005 90.8577C69.9689 91.9525 67.4373 93.0472 64.9057 94.142C64.7005 94.0735 64.4268 94.0051 64.2215 93.9367C63.4689 94.2104 62.7163 94.5525 61.8952 94.8946C61.7584 95.0999 61.69 95.3735 61.5531 95.5788C59.2268 96.5367 56.8321 97.4946 54.5057 98.4525C54.1636 98.7946 53.89 99.2051 53.5479 99.5472C55.1215 99.0683 56.7636 98.5209 58.3373 98.042C59.3636 98.1104 60.39 98.2472 61.4163 98.3156C61.69 97.6999 62.0321 97.0841 62.3057 96.3999C65.5215 95.442 68.8058 94.5525 72.0215 93.5946C74.2794 92.2946 76.4689 91.063 78.7268 89.763C79.2742 89.3525 79.8215 88.8735 80.3689 88.463C80.2321 87.5051 80.0952 86.5472 79.9584 85.5893C79.8215 84.4946 79.6163 83.3999 79.4794 82.3735C78.9321 82.6472 78.3847 82.8525 77.7689 83.1262Z" fill="white"/>
</svg>
